<?xml version="1.0" standalone="no"?>
<!DOCTYPE svg PUBLIC "-//W3C//DTD SVG 20010904//EN"
 "http://www.w3.org/TR/2001/REC-SVG-20010904/DTD/svg10.dtd">
<svg version="1.0" xmlns="http://www.w3.org/2000/svg"
 width="260.000000pt" height="260.000000pt" viewBox="0 0 260.000000 260.000000"
 preserveAspectRatio="xMidYMid meet">
<metadata>
Created by potrace 1.14, written by Peter Selinger 2001-2017
</metadata>
<g transform="translate(0.000000,260.000000) scale(0.100000,-0.100000)"
fill="#000000" stroke="none">
<path d="M150 2584 c-59 -26 -101 -65 -126 -118 l-24 -51 0 -1113 c0 -1214 -3
-1141 57 -1220 14 -19 49 -45 77 -58 l51 -24 1113 0 c1214 0 1141 -3 1220 57
19 14 45 49 58 77 l24 51 0 1113 c0 1214 3 1141 -57 1220 -14 19 -49 45 -77
58 l-51 24 -1115 0 c-968 -1 -1120 -3 -1150 -16z m570 -1191 l0 -327 70 69 70
70 47 -48 48 -47 -153 -153 -152 -152 -152 152 -153 153 48 47 47 48 68 -68
68 -68 -4 326 -5 325 77 0 76 0 0 -327z m1383 179 l147 -147 -48 -48 -48 -48
-63 66 c-34 36 -65 65 -67 65 -2 0 -4 -144 -4 -320 l0 -320 -76 0 -76 0 4 320
c2 176 2 320 0 320 -1 0 -30 -29 -64 -66 l-61 -65 -49 48 -48 48 147 147 c81
82 150 148 153 148 3 0 72 -66 153 -148z"/>
</g>
</svg>
